<?xml version="1.0" encoding="UTF-8" standalone="no"?>
<!-- Generator: Adobe Illustrator 16.0.0, SVG Export Plug-In . SVG Version: 6.00 Build 0)  -->

<svg
   xmlns:dc="http://purl.org/dc/elements/1.1/"
   xmlns:cc="http://creativecommons.org/ns#"
   xmlns:rdf="http://www.w3.org/1999/02/22-rdf-syntax-ns#"
   xmlns:svg="http://www.w3.org/2000/svg"
   xmlns="http://www.w3.org/2000/svg"
   xmlns:sodipodi="http://sodipodi.sourceforge.net/DTD/sodipodi-0.dtd"
   xmlns:inkscape="http://www.inkscape.org/namespaces/inkscape"
   version="1.1"
   id="Layer_1"
   x="0px"
   y="0px"
   width="128px"
   height="128px"
   viewBox="0 0 128 128"
   enable-background="new 0 0 128 128"
   xml:space="preserve"
   inkscape:version="0.91 r13725"
   sodipodi:docname="recaptch.svg"><metadata
     id="metadata3398"><rdf:RDF><cc:Work
         rdf:about=""><dc:format>image/svg+xml</dc:format><dc:type
           rdf:resource="http://purl.org/dc/dcmitype/StillImage" /><dc:title></dc:title></cc:Work></rdf:RDF></metadata><defs
     id="defs3396" /><sodipodi:namedview
     pagecolor="#ffffff"
     bordercolor="#666666"
     borderopacity="1"
     objecttolerance="10"
     gridtolerance="10"
     guidetolerance="10"
     inkscape:pageopacity="0"
     inkscape:pageshadow="2"
     inkscape:window-width="1716"
     inkscape:window-height="1051"
     id="namedview3394"
     showgrid="false"
     showguides="true"
     inkscape:guide-bbox="true"
     inkscape:zoom="5.6568542"
     inkscape:cx="77.831824"
     inkscape:cy="72.962475"
     inkscape:window-x="1920"
     inkscape:window-y="0"
     inkscape:window-maximized="1"
     inkscape:current-layer="Layer_1" /><g
     inkscape:groupmode="layer"
     id="layer1"
     inkscape:label="Layer 1"
     style="display:inline" /><path
     style="color:#000000;font-style:normal;font-variant:normal;font-weight:normal;font-stretch:normal;font-size:medium;line-height:normal;font-family:sans-serif;text-indent:0;text-align:start;text-decoration:none;text-decoration-line:none;text-decoration-style:solid;text-decoration-color:#000000;letter-spacing:normal;word-spacing:normal;text-transform:none;direction:ltr;block-progression:tb;writing-mode:lr-tb;baseline-shift:baseline;text-anchor:start;white-space:normal;clip-rule:nonzero;display:inline;overflow:visible;visibility:visible;opacity:1;isolation:auto;mix-blend-mode:normal;color-interpolation:sRGB;color-interpolation-filters:linearRGB;solid-color:#000000;solid-opacity:1;fill:#000000;fill-opacity:1;fill-rule:nonzero;stroke:#000000;stroke-width:2;stroke-linecap:butt;stroke-linejoin:miter;stroke-miterlimit:4;stroke-dasharray:none;stroke-dashoffset:0;stroke-opacity:1;color-rendering:auto;image-rendering:auto;shape-rendering:auto;text-rendering:auto;enable-background:accumulate"
     d="m 6.234375,62.111328 -1.2480469,0.212891 0.1445313,1.796875 -0.9726563,-0.875 0.058594,-0.925782 -0.2460938,-0.0039 -0.2890625,51.257814 12.5507814,-12.5332 c 11.550942,15.50865 29.764588,24.78852 49.259766,24.79101 15.940629,-0.002 31.259019,-6.16675 42.712892,-17.19141 l 1.32031,-1.27148 -25.080078,-25.503906 -1.294921,1.28125 C 78.235105,88.002323 71.606602,90.727911 64.697266,90.732422 54.680239,90.718605 45.649186,84.981905 41.240234,76.0625 L 54.675781,62.642578 11.605469,62.376953 6.2207031,62.322266 6.234375,62.111328 Z m -0.140625,2.208984 0.5820312,0.0059 -0.097656,1.625 -0.6269531,-0.06836 0.00781,-1.533203 0.1328125,0.002 0.00195,-0.03125 z m 1.53125,1.646485 3.951172,0.04102 34.384766,0.210938 -9.117188,9.105469 0.496094,1.136719 c 4.760127,10.858044 15.495978,17.884078 27.351562,17.90039 l 0.002,0 0.002,0 c 7.252123,-0.0041 14.15091,-2.755833 19.572266,-7.496094 l 20.023442,20.359376 c -10.614382,9.58347 -24.413313,14.97497 -38.798832,14.97656 -19.036171,-0.002 -36.843544,-9.31868 -47.619141,-24.906248 l -1.236328,-1.789063 -9.2753909,9.265621 0.21875,-38.773433 0.042969,0 0.00195,-0.03125 z"
     id="path3699-0"
     inkscape:connector-curvature="0" /><path
     style="color:#000000;font-style:normal;font-variant:normal;font-weight:normal;font-stretch:normal;font-size:medium;line-height:normal;font-family:sans-serif;text-indent:0;text-align:start;text-decoration:none;text-decoration-line:none;text-decoration-style:solid;text-decoration-color:#000000;letter-spacing:normal;word-spacing:normal;text-transform:none;direction:ltr;block-progression:tb;writing-mode:lr-tb;baseline-shift:baseline;text-anchor:start;white-space:normal;clip-rule:nonzero;display:inline;overflow:visible;visibility:visible;opacity:1;isolation:auto;mix-blend-mode:normal;color-interpolation:sRGB;color-interpolation-filters:linearRGB;solid-color:#000000;solid-opacity:1;fill:#000000;fill-opacity:1;fill-rule:nonzero;stroke:#000000;stroke-width:2;stroke-linecap:butt;stroke-linejoin:miter;stroke-miterlimit:4;stroke-dasharray:none;stroke-dashoffset:0;stroke-opacity:1;color-rendering:auto;image-rendering:auto;shape-rendering:auto;text-rendering:auto;enable-background:accumulate"
     d="m 20.634766,2.3164062 -0.794922,0.21875 -0.06836,0.6835938 -0.162109,1.6152344 0.488281,-0.2597656 -0.625,0.8398437 9.396485,9.4433595 C 13.336058,26.376846 4.0205711,44.57451 3.9785156,64.070312 l 0,0.02344 0,0.04883 0.00195,0.02734 c 0.00329,0.06022 0.0069,0.117261 0.00977,0.173828 l 0,0.002 0.091797,1.714844 35.1406248,0.08398 -0.107422,-1.921875 c -0.01647,-0.295892 -0.02873,-0.589232 -0.03516,-0.882812 l 0,-0.0039 0,-0.002 C 39.11838,53.320827 44.87096,44.306823 53.796875,39.917969 l 13.394531,13.464843 0.34961,-43.070312 0.0918,-7.3867188 -0.0293,-0.00195 0.002,-0.2460937 -46.970703,-0.3613282 z m 4.521484,3.6660157 38.775391,0.296875 0,0.039063 0.0293,0.00195 -0.04883,3.9531255 -0.28125,34.380859 -9.085937,-9.132813 -1.138672,0.496094 C 42.794784,40.643844 35.87618,50.984811 35.515625,62.505859 L 7.7226562,62.4375 C 8.283579,44.02772 17.455776,26.941454 32.611328,16.509766 L 34.404297,15.275391 25.15625,5.9824219 Z"
     id="path3699-0-0"
     inkscape:connector-curvature="0" /><path
     style="color:#000000;font-style:normal;font-variant:normal;font-weight:normal;font-stretch:normal;font-size:medium;line-height:normal;font-family:sans-serif;text-indent:0;text-align:start;text-decoration:none;text-decoration-line:none;text-decoration-style:solid;text-decoration-color:#000000;letter-spacing:normal;word-spacing:normal;text-transform:none;direction:ltr;block-progression:tb;writing-mode:lr-tb;baseline-shift:baseline;text-anchor:start;white-space:normal;clip-rule:nonzero;display:inline;overflow:visible;visibility:visible;opacity:1;isolation:auto;mix-blend-mode:normal;color-interpolation:sRGB;color-interpolation-filters:linearRGB;solid-color:#000000;solid-opacity:1;fill:#000000;fill-opacity:1;fill-rule:nonzero;stroke:#000000;stroke-width:2;stroke-linecap:butt;stroke-linejoin:miter;stroke-miterlimit:4;stroke-dasharray:none;stroke-dashoffset:0;stroke-opacity:1;color-rendering:auto;image-rendering:auto;shape-rendering:auto;text-rendering:auto;enable-background:accumulate"
     d="m 66.441406,2.6484375 -0.40039,0.03125 -0.02148,0.00195 c -0.04979,0.00215 -0.100559,0.00379 -0.146484,0.00586 l -1.712891,0.074219 -0.402344,35.1406252 1.921876,-0.0918 c 0.291287,-0.01356 0.581878,-0.02352 0.875,-0.02734 0.02797,3.67e-4 0.03019,3.04e-4 0.0059,0 l 0.0059,0 c 10.013547,0.128923 18.975783,5.964971 23.283203,14.931641 l -13.585937,13.269531 43.064448,0.742187 7.36524,0.160157 0.002,-0.02539 0.26758,0.0059 0.81445,-48.535157 -2.52343,-0.205078 -0.58985,0.578125 -9.52929,9.306641 C 103.75673,12.375974 85.645895,2.8972362 66.152344,2.6777344 l -0.0059,-0.00195 0.328125,0 -0.0332,-0.027344 z m 1.304688,3.7871094 C 86.150991,7.1632396 103.15539,16.491532 113.44922,31.742188 l 1.21875,1.802734 9.37695,-9.16211 -0.65039,38.800782 -3.99609,-0.08594 L 85.021484,62.503906 94.238281,53.5 93.751953,52.359375 C 89.222612,41.706454 78.946858,34.690147 67.429688,34.224609 L 67.746094,6.4355469 Z"
     id="path3699-0-0-1"
     inkscape:connector-curvature="0" /></svg>