<?xml version="1.0" encoding="iso-8859-1"?>
<!-- Generator: Adobe Illustrator 16.0.0, SVG Export Plug-In . SVG Version: 6.00 Build 0)  -->
<!DOCTYPE svg PUBLIC "-//W3C//DTD SVG 1.1//EN" "http://www.w3.org/Graphics/SVG/1.1/DTD/svg11.dtd">
<svg version="1.1" id="Capa_1" xmlns="http://www.w3.org/2000/svg" xmlns:xlink="http://www.w3.org/1999/xlink" x="0px" y="0px"
	 width="512px" height="512px" viewBox="0 0 512 512" style="enable-background:new 0 0 512 512;" xml:space="preserve">
<g>
	<path d="M480,255.922v199.719L342.688,298.703l49.906-42.781h-49.156l-87.438,74.938L56.562,159.922H288v-32H0v384h512v-256H480z
		 M32,180.984l137.313,117.688L32,455.609V180.984z M53.25,479.922l140.375-160.406L256,372.984l62.406-53.469L458.75,479.922H53.25
		z M352,159.922h-32V80.109c0-44.125,35.875-80,80-80.031c44.125,0,80,35.875,80,80v128c0.063,12.813-4.906,24.906-14,34.031
		c-18.125,18.219-49.875,18.219-68,0c-9.094-9.125-14.062-21.219-14-34.094V63.922h32v144.156c0,4.375,1.625,8.406,4.656,11.438
		c6.062,6.063,16.625,6.063,22.688,0c3.031-3.031,4.656-7.063,4.656-11.344V80.078c0-26.469-21.531-48-48-48
		c-26.469,0.031-48,21.531-48,48V159.922z"/>
</g>
<g>
</g>
<g>
</g>
<g>
</g>
<g>
</g>
<g>
</g>
<g>
</g>
<g>
</g>
<g>
</g>
<g>
</g>
<g>
</g>
<g>
</g>
<g>
</g>
<g>
</g>
<g>
</g>
<g>
</g>
</svg>
