<?xml version="1.0" encoding="iso-8859-1"?>
<!-- Generator: Adobe Illustrator 18.0.0, SVG Export Plug-In . SVG Version: 6.00 Build 0)  -->
<!DOCTYPE svg PUBLIC "-//W3C//DTD SVG 1.1//EN" "http://www.w3.org/Graphics/SVG/1.1/DTD/svg11.dtd">
<svg version="1.1" id="Capa_1" xmlns="http://www.w3.org/2000/svg" xmlns:xlink="http://www.w3.org/1999/xlink" x="0px" y="0px"
	 viewBox="0 0 306.415 306.415" style="enable-background:new 0 0 306.415 306.415;" xml:space="preserve">
<g>
	<path d="M293.915,22.12h-195.6c-6.903,0-12.5,5.597-12.5,12.5v32.008h25V47.12h170.6v127.506h-22.698v25h35.198
		c6.903,0,12.5-5.597,12.5-12.5V34.62C306.415,27.717,300.819,22.12,293.915,22.12z"/>
	<path d="M208.101,106.79H12.5c-6.903,0-12.5,5.597-12.5,12.5v152.505c0,6.903,5.597,12.5,12.5,12.5h195.601
		c6.903,0,12.5-5.597,12.5-12.5V119.29C220.601,112.387,215.004,106.79,208.101,106.79z M195.601,259.295H25V131.79h170.601V259.295
		z"/>
	<path d="M71.077,241.999c2.009,1.243,4.29,1.87,6.578,1.87c1.906,0,3.817-0.436,5.578-1.314l71.827-35.826
		c4.241-2.115,6.921-6.446,6.921-11.186s-2.68-9.07-6.921-11.186L83.233,148.53c-3.873-1.934-8.473-1.721-12.156,0.556
		c-3.682,2.278-5.923,6.3-5.923,10.63v71.653C65.154,235.699,67.396,239.721,71.077,241.999z"/>
</g>
<g>
</g>
<g>
</g>
<g>
</g>
<g>
</g>
<g>
</g>
<g>
</g>
<g>
</g>
<g>
</g>
<g>
</g>
<g>
</g>
<g>
</g>
<g>
</g>
<g>
</g>
<g>
</g>
<g>
</g>
</svg>
