<?xml version="1.0" encoding="iso-8859-1"?>
<!-- Generator: Adobe Illustrator 18.1.1, SVG Export Plug-In . SVG Version: 6.00 Build 0)  -->
<svg version="1.1" id="Capa_1" xmlns="http://www.w3.org/2000/svg" xmlns:xlink="http://www.w3.org/1999/xlink" x="0px" y="0px"
	 viewBox="0 0 1020.397 1020.397" style="enable-background:new 0 0 1020.397 1020.397;" xml:space="preserve">
<g>
	<path d="M837.986,724.659c-82.11-27.378-163.044-45.591-166.449-46.352c-16.259-3.633-32.471,6.599-36.127,22.913
		c-3.657,16.306,6.686,32.479,22.992,36.127c149.657,33.506,289.621,87.015,301.621,115.013v40.838H223.57l-0.016-40.602
		c11.621-27.959,151.952-81.605,301.688-115.151c13.826-3.092,23.78-15.455,23.78-29.619v-53.889c8,1.065,16.176,1.26,24.6,1.26
		h36.206c105.102,0,190.194-85.156,190.194-190.266V258.009c0-105.11-85.092-190.81-190.194-190.81h-36.206
		c-105.118,0-190.6,85.701-190.6,190.81v206.924c0,74.437,43,139.036,105,170.406v48.555c-30,7.478-86.294,21.956-142.698,40.765
		c-129.396,43.135-184.302,81.553-182.302,127.45v70.952c0,16.706,13.592,30.137,30.298,30.137h796.802
		c16.714,0,30.258-13.491,30.258-30.198l-0.016-69.91C1021.934,806.182,967.382,767.794,837.986,724.659z M443.021,464.933V258.009
		c0-71.745,58.848-129.81,130.6-129.81h36.206c71.737,0,130.194,58.066,130.194,129.81v206.924
		c0,71.745-58.457,130.266-130.194,130.266h-36.206C501.87,595.199,443.021,536.678,443.021,464.933z"/>
	<path d="M291.784,701.487c11.849-2.652,20.238-13.167,20.238-25.306v-41.18c6,0.702,12.076,1.198,18.22,1.198h28.979
		c14.321,0,25.934-11.679,25.934-26s-11.613-26-25.934-26h-28.979c-56.459,0-102.22-45.928-102.22-102.387V316.225
		c0-56.467,45.761-102.027,102.22-102.027h28.979c14.321,0,25.934-11.679,25.934-26s-11.613-26-25.934-26h-28.979
		c-85.061,0-154.22,68.966-154.22,154.027v165.586c0,59.865,34,111.873,84,137.432v36.283c-124,29.285-262,75.605-260,136.113
		v133.116c0,14.321,11.592,25.934,25.913,25.934s25.924-11.614,25.924-25.934l-0.037-132.449
		C62.823,770.038,174.111,727.853,291.784,701.487z"/>
</g>
<g>
</g>
<g>
</g>
<g>
</g>
<g>
</g>
<g>
</g>
<g>
</g>
<g>
</g>
<g>
</g>
<g>
</g>
<g>
</g>
<g>
</g>
<g>
</g>
<g>
</g>
<g>
</g>
<g>
</g>
</svg>
