<?xml version="1.0" encoding="iso-8859-1"?>
<!-- Generator: Adobe Illustrator 19.1.0, SVG Export Plug-In . SVG Version: 6.00 Build 0)  -->
<svg version="1.1" id="Capa_1" xmlns="http://www.w3.org/2000/svg" xmlns:xlink="http://www.w3.org/1999/xlink" x="0px" y="0px"
	 viewBox="0 0 542.651 542.651" style="enable-background:new 0 0 542.651 542.651;" xml:space="preserve">
<g>
	<path d="M509.668,419.013l-144.792-55.986c-2.896-0.965-5.792-2.896-5.792-5.792s0.965-4.826,2.896-7.722
		c2.896-3.861,72.396-84.945,72.396-169.889c0-88.806-72.396-162.167-162.167-162.167S110.042,89.853,110.042,179.624
		c0,84.945,69.5,166.994,72.396,169.889c1.931,2.896,3.861,5.792,2.896,7.722s-2.896,3.861-5.792,5.792L34.75,419.013
		C15.444,426.736,0,448.937,0,470.173v14.479c0,22.201,18.34,40.542,40.542,40.542h461.404c22.201,0,40.542-18.34,40.542-40.542
		v-14.479C544.418,448.937,528.974,425.77,509.668,419.013z M520.286,483.687c0,9.653-7.722,17.375-17.375,17.375H41.507
		c-9.653,0-17.375-7.722-17.375-17.375v-14.479c0-10.618,8.688-24.132,19.306-27.993l144.792-55.986
		c10.618-3.861,18.34-12.549,21.236-22.201c2.896-9.653,0-20.271-7.722-28.958c-0.965-0.965-66.604-78.188-66.604-154.445
		S196.917,41.589,273.174,41.589S411.21,103.367,411.21,179.624s-65.639,153.48-66.604,154.445
		c-7.722,8.688-10.618,19.306-7.722,28.958c2.896,9.653,9.653,18.34,21.236,22.201l144.792,55.986
		c10.618,3.861,19.306,17.375,19.306,27.993v14.479H520.286z"/>
	<g>
	</g>
	<g>
	</g>
	<g>
	</g>
	<g>
	</g>
	<g>
	</g>
	<g>
	</g>
	<g>
	</g>
	<g>
	</g>
	<g>
	</g>
	<g>
	</g>
	<g>
	</g>
	<g>
	</g>
	<g>
	</g>
	<g>
	</g>
	<g>
	</g>
</g>
<g>
</g>
<g>
</g>
<g>
</g>
<g>
</g>
<g>
</g>
<g>
</g>
<g>
</g>
<g>
</g>
<g>
</g>
<g>
</g>
<g>
</g>
<g>
</g>
<g>
</g>
<g>
</g>
<g>
</g>
</svg>
