<?xml version="1.0" encoding="iso-8859-1"?>
<!-- Generator: Adobe Illustrator 18.0.0, SVG Export Plug-In . SVG Version: 6.00 Build 0)  -->
<!DOCTYPE svg PUBLIC "-//W3C//DTD SVG 1.1//EN" "http://www.w3.org/Graphics/SVG/1.1/DTD/svg11.dtd">
<svg version="1.1" id="Capa_1" xmlns="http://www.w3.org/2000/svg" xmlns:xlink="http://www.w3.org/1999/xlink" x="0px" y="0px"
	 viewBox="0 0 365.988 365.988" style="enable-background:new 0 0 365.988 365.988;" xml:space="preserve">
<path d="M315.988,161.105c-22.717,0-41.931,15.233-47.996,36.018l-73.614-15.226c-1.586-17.84-16.608-31.876-34.853-31.876
	c-6.134,0-11.901,1.591-16.92,4.375l-33.66-30.389C115.853,115.432,120,104.544,120,92.701c0-27.57-22.43-50-50-50
	c-27.57,0-50,22.43-50,50s22.43,50,50,50c8.437,0,16.388-2.109,23.367-5.814l35.219,31.797c-2.588,4.881-4.06,10.439-4.06,16.338
	c0,4.585,0.896,8.962,2.505,12.979L81.973,234.88C73.299,227.647,62.15,223.287,50,223.287c-27.57,0-50,22.43-50,50
	c0,27.57,22.43,50,50,50c27.57,0,50-22.43,50-50c0-8.21-2.001-15.956-5.522-22.797l44.982-36.817
	c5.686,3.994,12.604,6.349,20.065,6.349c13.345,0,24.966-7.511,30.869-18.524l75.98,15.716
	c3.023,24.698,24.112,43.893,49.614,43.893c27.57,0,50-22.43,50-50S343.559,161.105,315.988,161.105z M70,112.701
	c-11.046,0-20-8.955-20-20c0-11.045,8.954-20,20-20s20,8.955,20,20C90,103.746,81.046,112.701,70,112.701z M50,293.287
	c-11.046,0-20-8.955-20-20c0-11.045,8.954-20,20-20s20,8.955,20,20C70,284.332,61.046,293.287,50,293.287z M159.525,198.355
	c-7.363,0-13.332-5.969-13.332-13.334c0-7.363,5.969-13.332,13.332-13.332c7.364,0,13.334,5.969,13.334,13.332
	C172.859,192.387,166.89,198.355,159.525,198.355z M315.988,231.105c-11.047,0-20-8.955-20-20c0-11.047,8.953-20,20-20
	c11.045,0,20,8.953,20,20C335.988,222.15,327.033,231.105,315.988,231.105z"/>
<g>
</g>
<g>
</g>
<g>
</g>
<g>
</g>
<g>
</g>
<g>
</g>
<g>
</g>
<g>
</g>
<g>
</g>
<g>
</g>
<g>
</g>
<g>
</g>
<g>
</g>
<g>
</g>
<g>
</g>
</svg>
