<?xml version="1.0" encoding="UTF-8" standalone="no"?>
<!-- Generator: Adobe Illustrator 18.1.1, SVG Export Plug-In . SVG Version: 6.00 Build 0)  -->

<svg
   xmlns:dc="http://purl.org/dc/elements/1.1/"
   xmlns:cc="http://creativecommons.org/ns#"
   xmlns:rdf="http://www.w3.org/1999/02/22-rdf-syntax-ns#"
   xmlns:svg="http://www.w3.org/2000/svg"
   xmlns="http://www.w3.org/2000/svg"
   xmlns:sodipodi="http://sodipodi.sourceforge.net/DTD/sodipodi-0.dtd"
   xmlns:inkscape="http://www.inkscape.org/namespaces/inkscape"
   version="1.1"
   id="Layer_1"
   x="0px"
   y="0px"
   viewBox="0 0 13.9 12"
   enable-background="new 0 0 13.9 12"
   xml:space="preserve"
   inkscape:version="0.91 r13725"
   sodipodi:docname="logo-small-blue.svg"><metadata
     id="metadata4233"><rdf:RDF><cc:Work
         rdf:about=""><dc:format>image/svg+xml</dc:format><dc:type
           rdf:resource="http://purl.org/dc/dcmitype/StillImage" /><dc:title></dc:title></cc:Work></rdf:RDF></metadata><defs
     id="defs4231" /><sodipodi:namedview
     pagecolor="#ffffff"
     bordercolor="#666666"
     borderopacity="1"
     objecttolerance="10"
     gridtolerance="10"
     guidetolerance="10"
     inkscape:pageopacity="0"
     inkscape:pageshadow="2"
     inkscape:window-width="1920"
     inkscape:window-height="993"
     id="namedview4229"
     showgrid="false"
     inkscape:zoom="69.333333"
     inkscape:cx="6.9499998"
     inkscape:cy="6"
     inkscape:window-x="0"
     inkscape:window-y="58"
     inkscape:window-maximized="1"
     inkscape:current-layer="g4223" /><g
     id="g4223"><path
       fill="#A5D05F"
       d="M7.6,3.5c-0.4,0.4-1,0.4-1.4,0c-0.4-0.4-0.4-1,0-1.4c0.4-0.4,1-0.4,1.4,0C8,2.5,8,3.1,7.6,3.5L7.6,3.5z    M8.8,0.8c-1.1-1.1-2.9-1.1-4,0s-1.1,2.9,0,4s2.9,1.1,4,0C9.9,3.7,9.9,1.9,8.8,0.8L8.8,0.8z"
       id="path4225"
       style="fill:#215d90;fill-opacity:1" /><path
       fill="#456A5C"
       d="M11.8,9.9c-0.4,0.4-1,0.4-1.4,0c-0.4-0.4-0.4-1,0-1.4c0.4-0.4,1-0.4,1.4,0C12.2,8.8,12.2,9.5,11.8,9.9   L11.8,9.9z M3.6,9.9c-0.4,0.4-1,0.4-1.4,0c-0.4-0.4-0.4-1,0-1.4c0.4-0.4,1-0.4,1.4,0C3.9,8.8,3.9,9.5,3.6,9.9L3.6,9.9z M11.1,6.3   c-0.9,0-1.7,0.5-2.2,1.2C8.3,7.9,7.7,8.2,6.9,8.2c-0.7,0-1.4-0.3-1.9-0.7C4.6,6.8,3.7,6.4,2.8,6.4C1.2,6.4,0,7.6,0,9.2   C0,10.8,1.3,12,2.8,12c0.9,0,1.7-0.4,2.2-1.1c0.5-0.5,1.2-0.8,1.9-0.8c0.7,0,1.4,0.3,1.9,0.8c0.5,0.7,1.3,1.1,2.2,1.1   c1.6,0,2.8-1.3,2.8-2.8C13.9,7.6,12.6,6.3,11.1,6.3L11.1,6.3z"
       id="path4227"
       style="fill:#215d90;fill-opacity:1" /></g></svg>